HIERARCHY
ROOT Hips
{
	OFFSET -0.001795 -0.223333 0.028219
	CHANNELS 6 Xposition Yposition Zposition Zrotation Yrotation Xrotation
	JOINT LeftUpLeg
	{
		OFFSET 0.069520 -0.091406 -0.006815
		CHANNELS 3 Zrotation Yrotation Xrotation
		JOINT LeftLeg
		{
			OFFSET 0.034277 -0.375199 -0.004496
			CHANNELS 3 Zrotation Yrotation Xrotation
			JOINT LeftFoot
			{
				OFFSET -0.013596 -0.397961 -0.043693
				CHANNELS 3 Zrotation Yrotation Xrotation
				JOINT LeftToe
				{
					OFFSET 0.026358 -0.055791 0.119288
					CHANNELS 3 Zrotation Yrotation Xrotation
					End Site
					{
						OFFSET 0.000000 0.000000 0.000000
					}
				}
			}
		}
	}
	JOINT RightUpLeg
	{
		OFFSET -0.067670 -0.090522 -0.004320
		CHANNELS 3 Zrotation Yrotation Xrotation
		JOINT RightLeg
		{
			OFFSET -0.038290 -0.382569 -0.008850
			CHANNELS 3 Zrotation Yrotation Xrotation
			JOINT RightFoot
			{
				OFFSET 0.015774 -0.398415 -0.042312
				CHANNELS 3 Zrotation Yrotation Xrotation
				JOINT RightToe
				{
					OFFSET -0.025372 -0.048144 0.123348
					CHANNELS 3 Zrotation Yrotation Xrotation
					End Site
					{
						OFFSET 0.000000 0.000000 0.000000
					}
				}
			}
		}
	}
	JOINT Spine
	{
		OFFSET -0.002533 0.108963 -0.026696
		CHANNELS 3 Zrotation Yrotation Xrotation
		JOINT Spine1
		{
			OFFSET 0.005487 0.135180 0.001092
			CHANNELS 3 Zrotation Yrotation Xrotation
			JOINT Spine2
			{
				OFFSET 0.001457 0.052922 0.025425
				CHANNELS 3 Zrotation Yrotation Xrotation
				JOINT Neck
				{
					OFFSET -0.002778 0.213870 -0.042857
					CHANNELS 3 Zrotation Yrotation Xrotation
					JOINT Head
					{
						OFFSET 0.005152 0.064970 0.051349
						CHANNELS 3 Zrotation Yrotation Xrotation
						End Site
						{
							OFFSET 0.000000 0.000000 0.000000
						}
					}
				}
				JOINT LeftShoulder
				{
					OFFSET 0.078845 0.121749 -0.034090
					CHANNELS 3 Zrotation Yrotation Xrotation
					JOINT LeftArm
					{
						OFFSET 0.090977 0.030469 -0.008868
						CHANNELS 3 Zrotation Yrotation Xrotation
						JOINT LeftForeArm
						{
							OFFSET 0.259612 -0.012772 -0.027456
							CHANNELS 3 Zrotation Yrotation Xrotation
							JOINT LeftHand
							{
								OFFSET 0.249234 0.008986 -0.001171
								CHANNELS 3 Zrotation Yrotation Xrotation
								End Site
								{
									OFFSET 0.000000 0.000000 0.000000
								}
							}
						}
					}
				}
				JOINT RightShoulder
				{
					OFFSET -0.081759 0.118833 -0.038615
					CHANNELS 3 Zrotation Yrotation Xrotation
					JOINT RightArm
					{
						OFFSET -0.096012 0.032551 -0.009143
						CHANNELS 3 Zrotation Yrotation Xrotation
						JOINT RightForeArm
						{
							OFFSET -0.253742 -0.013329 -0.021401
							CHANNELS 3 Zrotation Yrotation Xrotation
							JOINT RightHand
							{
								OFFSET -0.255298 0.007772 -0.005559
								CHANNELS 3 Zrotation Yrotation Xrotation
								End Site
								{
									OFFSET 0.000000 0.000000 0.000000
								}
							}
						}
					}
				}
			}
		}
	}
}
MOTION
Frames: 13
Frame Time: 0.050000
0.000000 1.012536 0.000000 -18.175405 21.311998 157.292962 8.711365 2.537547 -68.935199 -24.058840 17.987476 63.582526 6.733444 13.874881 -95.091669 0.000000 0.000000 0.000000 -14.552414 9.877359 14.810465 8.983487 -2.017048 21.515124 0.699117 0.971240 1.887786 0.000000 0.000000 0.000000 -9.922745 10.165666 9.600500 -0.044752 0.856794 -22.341582 3.018438 2.240243 17.110606 12.213354 -0.437872 -22.462496 0.000000 0.000000 0.000000 52.257089 -3.258987 9.470701 33.890738 -11.982168 -0.328263 21.619364 16.921783 3.290295 0.000000 0.000000 0.000000 -12.904485 25.319436 18.005931 -47.521798 6.442818 -6.133839 -33.024190 -27.412420 12.591593 0.000000 0.000000 0.000000
0.007162 1.030600 0.009788 -20.476171 23.182242 161.823541 25.828590 -1.090497 -66.923021 -59.976286 -7.329674 20.901756 -1.439724 18.657874 -102.830834 0.000000 0.000000 0.000000 -20.656877 15.912219 19.130793 16.592266 -3.471233 10.860966 -10.857750 -11.178352 22.592438 0.000000 0.000000 0.000000 -12.660003 13.788970 3.667468 1.636618 0.934587 -23.673356 2.990282 -3.256098 19.112362 9.978790 0.209653 -19.936559 0.000000 0.000000 0.000000 40.705174 -7.882683 10.443708 42.095530 -1.403500 2.926861 25.880605 8.890344 2.512863 0.000000 0.000000 0.000000 -6.272281 24.533765 18.053701 -59.863323 6.455029 -5.664958 -32.853565 -24.710106 12.679700 0.000000 0.000000 0.000000
0.014495 1.046458 0.015872 -17.058212 16.781539 165.447553 30.510206 -3.298667 -67.672675 -81.219280 -16.253340 6.992336 5.908791 15.562921 -101.439741 0.000000 0.000000 0.000000 -20.529023 10.261123 26.046842 15.160240 -6.644456 20.076779 -12.060306 -25.994781 -16.410539 0.000000 0.000000 0.000000 -10.483391 11.904484 7.409453 4.764130 2.247388 -44.496797 -0.494053 -2.403665 32.650974 -8.366625 1.121685 -25.713949 0.000000 0.000000 0.000000 18.372975 -15.325308 14.565091 60.344498 -5.072185 -2.914112 29.374133 20.286770 5.468888 0.000000 0.000000 0.000000 8.745837 14.475535 13.428468 -78.647198 16.272360 -11.166967 -33.192956 -15.005855 10.994197 0.000000 0.000000 0.000000
0.020141 1.049475 0.020908 -16.116242 13.334201 173.618136 -127.889272 -4.060673 -112.374827 109.960013 -26.597169 3.839176 13.359156 13.255850 -111.822544 0.000000 0.000000 0.000000 -27.987489 -5.145704 26.695619 16.579228 3.192879 41.120511 -61.965051 -31.850396 -3.608873 0.000000 0.000000 0.000000 -14.271148 -13.374714 4.442134 26.648193 6.583110 -53.660012 0.019141 21.742641 45.496406 -145.147460 -2.711913 -28.980936 0.000000 0.000000 0.000000 15.289454 -13.354262 11.580756 61.982367 -5.174763 0.726503 30.670516 20.171215 8.055844 0.000000 0.000000 0.000000 18.722887 18.780526 7.571199 -97.462825 19.952995 -45.136711 -28.602391 2.371394 4.300372 0.000000 0.000000 0.000000
0.022878 1.037549 0.025328 -14.627983 11.309751 -179.265614 172.762030 -23.634647 -95.328754 143.505493 8.172788 -36.249636 10.617167 18.658683 -106.890213 0.000000 0.000000 0.000000 -33.872467 -18.721904 30.919479 8.239226 4.976220 63.074466 -29.264492 -33.170714 -46.095379 0.000000 0.000000 0.000000 -0.815786 -48.455951 -11.424712 71.212233 5.761283 -46.921029 33.786843 66.365983 128.974704 -84.787134 -46.117545 -133.828885 0.000000 0.000000 0.000000 8.370478 2.028870 -19.019599 70.239117 -16.993290 -34.618124 34.729417 2.453943 -2.421915 0.000000 0.000000 0.000000 18.427331 -14.738502 38.904961 -105.076999 -37.739617 34.962122 10.009525 -37.094383 -10.782723 0.000000 0.000000 0.000000
0.023966 1.027876 0.027913 -10.541410 6.375376 -164.600618 90.007060 -1.640536 -69.190071 26.976889 23.803814 -153.122652 8.921878 16.901063 -99.392468 0.000000 0.000000 0.000000 -9.986445 -1.273022 39.699049 29.270677 -25.741044 49.053853 -25.325427 -48.798022 -64.079406 0.000000 0.000000 0.000000 -0.839857 -15.091772 -28.373533 153.646171 -8.830948 -53.047401 -168.897149 26.160526 -46.630798 -77.598708 -35.972563 -146.543610 0.000000 0.000000 0.000000 31.530960 6.583959 13.584900 47.959476 -5.728700 5.021521 20.170472 30.863689 -0.027195 0.000000 0.000000 0.000000 -10.900876 9.190948 -29.228940 -68.961067 36.217631 -21.514703 -33.582838 -14.115392 6.868559 0.000000 0.000000 0.000000
0.024676 1.015141 0.028555 -8.104645 6.318541 -144.079977 63.191104 37.926343 -44.423004 17.498305 13.033326 -166.696992 -16.272807 22.791126 -71.004793 0.000000 0.000000 0.000000 -8.639137 -4.116631 45.707879 43.212381 -42.847251 34.946588 -21.543910 -37.702452 -77.027333 0.000000 0.000000 0.000000 10.343990 -8.289801 -70.245154 -7.523630 -50.959065 146.723436 -60.153389 -40.520008 -102.233338 -29.397335 -33.592300 165.206221 0.000000 0.000000 0.000000 27.592412 5.664428 35.483918 54.598680 0.033356 -10.340213 19.928012 28.321140 -0.186579 0.000000 0.000000 0.000000 -14.653831 -0.430742 31.701121 -76.127903 -5.513031 -13.426735 -19.854817 -30.747227 5.470071 0.000000 0.000000 0.000000
0.025067 1.007363 0.028956 -5.251555 1.881796 -123.971050 51.408692 28.436048 7.321212 -8.012375 -72.595631 -173.666317 48.576685 -63.808513 -39.900483 0.000000 0.000000 0.000000 6.543130 -2.645528 39.648090 52.702918 -49.984735 28.865609 -16.863131 -32.075729 -82.950487 0.000000 0.000000 0.000000 7.845330 1.315008 -94.521039 -2.896048 -18.133463 142.290807 -22.375934 -20.076534 -121.998120 -16.201972 -11.575449 149.855309 0.000000 0.000000 0.000000 21.989582 3.845538 49.763570 64.189414 13.923470 -24.917344 14.832288 27.793627 0.618776 0.000000 0.000000 0.000000 -17.127232 -3.862507 43.439131 -77.605931 -14.599288 -24.734323 -22.166582 -24.239036 4.815992 0.000000 0.000000 0.000000
0.024962 0.997220 0.032379 -5.274145 0.057557 -102.081986 23.209052 11.527253 -9.663351 -164.380656 20.663375 2.500637 -135.095704 43.685471 141.859548 0.000000 0.000000 0.000000 3.909730 0.018864 14.744490 47.144474 -35.846917 45.611936 -10.267751 -33.291718 -81.934233 0.000000 0.000000 0.000000 -2.747195 -3.780588 -116.033590 156.763710 -38.018680 -16.854512 -142.565691 -27.098668 -18.595220 -12.418041 -5.311056 142.671514 0.000000 0.000000 0.000000 14.284775 -1.099989 21.061491 73.084106 -3.611088 -3.823148 15.409020 27.110290 -1.222748 0.000000 0.000000 0.000000 0.978596 14.757306 10.914884 -89.888129 13.268487 -22.151447 -24.266297 -13.679896 1.439100 0.000000 0.000000 0.000000
0.024379 0.967866 0.039157 -4.876898 -5.039121 -88.141940 21.245257 9.051473 -21.974548 -82.265618 67.001593 78.975031 -10.274887 60.699244 -84.577406 0.000000 0.000000 0.000000 3.050204 2.185174 -4.447197 48.278224 -32.388585 53.157705 -7.035370 -35.459957 -80.233167 0.000000 0.000000 0.000000 -10.096850 -11.232193 -127.192587 22.643306 87.373278 -173.700011 130.791463 73.680721 -31.629920 -8.894755 6.207181 141.337030 0.000000 0.000000 0.000000 -14.754713 9.368651 63.556872 93.651689 50.380763 73.498527 -29.683178 27.904804 7.884812 0.000000 0.000000 0.000000 15.737842 3.375885 43.152244 -115.198096 -22.300818 15.586270 -14.497885 -24.033294 0.800936 0.000000 0.000000 0.000000
0.023977 0.915431 0.047785 -4.699185 -7.098190 -76.851132 17.938141 6.377924 -32.960215 -36.694026 45.223068 110.431332 3.457986 43.052957 -71.603769 0.000000 0.000000 0.000000 0.102883 2.432326 -17.230601 42.659066 -24.527437 52.308760 -6.758671 -34.897788 -72.763456 0.000000 0.000000 0.000000 -13.764027 -19.123141 -131.274321 -174.604433 -41.687519 -37.584605 -104.880696 -42.182265 -16.162843 -8.646445 -10.053348 138.213951 0.000000 0.000000 0.000000 -71.782878 -3.822467 -17.286120 102.425911 24.617565 67.817741 -29.190122 33.096588 -7.423139 0.000000 0.000000 0.000000 34.296790 -7.027065 -12.786295 -134.178929 -33.980067 115.781153 31.156685 2.076859 2.495070 0.000000 0.000000 0.000000
0.025072 0.862468 0.060001 -2.917065 -9.094480 -74.463600 14.397163 4.666747 -34.230791 -24.802783 29.681411 108.245232 7.797093 31.416155 -70.478158 0.000000 0.000000 0.000000 -0.639958 2.115872 -17.429309 32.715390 -18.401340 61.092422 -8.902926 -27.177863 -64.031134 0.000000 0.000000 0.000000 -14.179938 -15.282870 -123.779918 -8.628306 -30.163983 159.725889 -6.595141 -1.244055 25.579609 -9.430143 -6.678373 118.636355 0.000000 0.000000 0.000000 -80.103111 -20.437553 7.962953 -0.192769 10.491186 -0.240443 -23.684705 -10.753661 1.589268 0.000000 0.000000 0.000000 61.318442 10.362229 1.736526 15.852205 -10.536390 -5.463438 25.405905 15.906543 2.517574 0.000000 0.000000 0.000000
0.027629 0.802583 0.074683 0.671637 -10.181624 -73.897641 9.903527 2.525213 -36.745132 -15.370552 18.350292 102.517365 10.035497 24.431069 -65.627256 0.000000 0.000000 0.000000 1.924825 2.867149 -16.786364 18.772478 -8.263529 73.932428 -9.547927 -17.934063 -56.009494 0.000000 0.000000 0.000000 -4.039296 13.904809 -79.238167 -7.299411 -26.210358 152.067851 -5.203028 -15.088286 5.002048 -8.020640 -15.009626 117.043648 0.000000 0.000000 0.000000 -62.726387 -25.515564 17.020193 -5.163358 -10.990385 -1.307318 -13.612056 -22.205403 1.890698 0.000000 0.000000 0.000000 50.520210 20.744633 4.256371 25.406945 10.690158 -2.232016 16.378435 23.426876 2.633452 0.000000 0.000000 0.000000
